@startuml UseCaseContextView
title Use Case Context 

state INITIAL
state IN_GAME
state OUT_GAME

state if1 <<choice>>
state if2 <<choice>>

[*] --> INITIAL
INITIAL --> IN_GAME : Start
IN_GAME --> if1 : Play
    if1 --> IN_GAME
if1 --> OUT_GAME : [IsFinished]
OUT_GAME --> if2 
    if2 --> IN_GAME : Resume
if2 --> [*]

@enduml